<svg id="Logo" xmlns="http://www.w3.org/2000/svg" xmlns:xlink="http://www.w3.org/1999/xlink" width="166.969" height="63.813" viewBox="0 0 166.969 63.813">
  <defs>
    <style>
      .cls-1, .cls-2 {
        fill: #ecede7;
        fill-rule: evenodd;
      }

      .cls-1 {
        filter: url(#filter);
      }

      .cls-2 {
        filter: url(#filter-2);
      }
    </style>
    <filter id="filter" x="88.5" y="25.063" width="121.031" height="46.344" filterUnits="userSpaceOnUse">
      <feFlood result="flood" flood-color="#383838"/>
      <feComposite result="composite" operator="in" in2="SourceGraphic"/>
      <feBlend result="blend" in2="SourceGraphic"/>
    </filter>
    <filter id="filter-2" x="116.281" y="45.906" width="139.188" height="42.969" filterUnits="userSpaceOnUse">
      <feFlood result="flood" flood-color="#fff"/>
      <feComposite result="composite" operator="in" in2="SourceGraphic"/>
      <feBlend result="blend" in2="SourceGraphic"/>
    </filter>
  </defs>
  <path id="PSUTI" class="cls-1" d="M88.985,70.978a1.515,1.515,0,0,0,1.056.436h3.767a1.467,1.467,0,0,0,1.1-.436,1.5,1.5,0,0,0,.422-1.083V53.154h6.289a9.045,9.045,0,0,0,6.579-2.618,8.912,8.912,0,0,0,2.677-6.658V34.344a8.906,8.906,0,0,0-2.682-6.658,9.079,9.079,0,0,0-6.593-2.618H90.033a1.485,1.485,0,0,0-1.066.436,1.371,1.371,0,0,0-.453,1.018V69.9A1.415,1.415,0,0,0,88.985,70.978Zm6.349-39.543h4.894a3.531,3.531,0,0,1,2.834,1.163,4.554,4.554,0,0,1,1,3.07v6.884a4.554,4.554,0,0,1-1,3.07,3.531,3.531,0,0,1-2.834,1.164H95.334V31.435Zm23.011,37.588a11.168,11.168,0,0,0,7.337,2.392h4.234a9.08,9.08,0,0,0,6.593-2.618,8.906,8.906,0,0,0,2.682-6.658V56.257a9.884,9.884,0,0,0-1.422-5.527,13.117,13.117,0,0,0-4.46-3.943l-7.821-4.622a7.055,7.055,0,0,1-2.311-2.036,5.1,5.1,0,0,1-.6-2.683V35.6a4.416,4.416,0,0,1,1-3.038,3.6,3.6,0,0,1,2.844-1.131h2.1a3.877,3.877,0,0,1,2.989,1.131,4.385,4.385,0,0,1,1.051,3.1v3.975a1.42,1.42,0,0,0,.468,1.083,1.5,1.5,0,0,0,1.051.436h3.781a1.456,1.456,0,0,0,1.1-.436,1.5,1.5,0,0,0,.42-1.083V34.473a8.734,8.734,0,0,0-2.812-6.949,10.794,10.794,0,0,0-7.368-2.456h-3.232a10.9,10.9,0,0,0-7.337,2.456,8.485,8.485,0,0,0-2.876,6.819v4.719q0,5.592,4.3,8.112l8.209,4.848a18.837,18.837,0,0,1,2.085,1.358,5.641,5.641,0,0,1,1.357,1.81,6.452,6.452,0,0,1,.663,3.038v2.585a4.527,4.527,0,0,1-1,3.087,3.574,3.574,0,0,1-2.844,1.147H126.3a3.94,3.94,0,0,1-2.99-1.1,4.359,4.359,0,0,1-1.05-3.135V56.192a1.408,1.408,0,0,0-.469-1.1,1.534,1.534,0,0,0-1.05-.42h-3.782a1.454,1.454,0,0,0-1.1.436,1.5,1.5,0,0,0-.421,1.083V62.2A8.327,8.327,0,0,0,118.345,69.023Zm29.863-.226a9.079,9.079,0,0,0,6.594,2.618h4.847a9.022,9.022,0,0,0,6.577-2.618,8.931,8.931,0,0,0,2.667-6.658V26.62a1.513,1.513,0,0,0-.436-1.115,1.471,1.471,0,0,0-1.083-.436h-3.749a1.482,1.482,0,0,0-1.115.453,1.525,1.525,0,0,0-.437,1.1V60.814a4.576,4.576,0,0,1-.985,3.087,3.526,3.526,0,0,1-2.828,1.147h-2.069a3.572,3.572,0,0,1-2.812-1.163,4.452,4.452,0,0,1-1.034-3.07V26.62a1.509,1.509,0,0,0-.436-1.115,1.471,1.471,0,0,0-1.083-.436h-3.749a1.483,1.483,0,0,0-1.115.453,1.525,1.525,0,0,0-.436,1.1V62.139A8.906,8.906,0,0,0,148.208,68.8ZM174.048,31a1.5,1.5,0,0,0,1.05.436h7.207V69.9a1.417,1.417,0,0,0,.469,1.083,1.5,1.5,0,0,0,1.05.436h3.782a1.486,1.486,0,0,0,1.066-.436,1.442,1.442,0,0,0,.453-1.083V31.435H196.4A1.54,1.54,0,0,0,197.479,31a1.421,1.421,0,0,0,.469-1.083v-3.3a1.434,1.434,0,0,0-.485-1.115,1.559,1.559,0,0,0-1.066-.436H175.1a1.575,1.575,0,0,0-1.519,1.551v3.3A1.417,1.417,0,0,0,174.048,31Zm29.089,39.979a1.481,1.481,0,0,0,1.088.436h3.767a1.467,1.467,0,0,0,1.1-.436,1.493,1.493,0,0,0,.422-1.083V26.62a1.507,1.507,0,0,0-.438-1.115,1.481,1.481,0,0,0-1.088-.436h-3.767a1.441,1.441,0,0,0-1.1.453,1.55,1.55,0,0,0-.422,1.1V69.9A1.467,1.467,0,0,0,203.137,70.978Z" transform="translate(-88.5 -25.063)"/>
  <path id="Courses" class="cls-2" d="M131.1,87.812a23.189,23.189,0,0,0,4.566-3.844,67.239,67.239,0,0,0,5.152-5.953,57.584,57.584,0,0,0,4.085-5.927,9.386,9.386,0,0,0,1.548-3.657,1.382,1.382,0,0,0-.347-0.667,0.928,0.928,0,0,0-.667-0.454q-0.429,0-1.762,2.67a46.371,46.371,0,0,1-3.791,5.179q-8.437,10.466-13.723,10.465l-0.694-.053q-3.363-.054-3.364-5.927a30.077,30.077,0,0,1,.161-3.5,22.984,22.984,0,0,1,.534-2.8,45.082,45.082,0,0,1,3.043-9.184,43.52,43.52,0,0,1,4.218-6.728q3.951-5.286,6.728-6.568a3.7,3.7,0,0,1,1.388-.48q0.373,0,.374.748a15.7,15.7,0,0,1-.694,3.791A15.863,15.863,0,0,1,134.17,61.7a6.5,6.5,0,0,1-2.749,2q-1.149.294-1.148,0.774a1.951,1.951,0,0,0,1.174,1.175,4.268,4.268,0,0,0,1.923.481,2.349,2.349,0,0,0,.747-0.107,2.707,2.707,0,0,0,.8-0.507,14.706,14.706,0,0,0,1.228-1.2,18.79,18.79,0,0,0,4.806-10.092A6.965,6.965,0,0,0,141.058,53a8.34,8.34,0,0,0-1.521-4.645,4.589,4.589,0,0,0-3.5-2.4l-0.587-.053q-3.684,0-8.863,5.553a35.206,35.206,0,0,0-8.063,12.6,26.958,26.958,0,0,0-2.243,10.092,15.972,15.972,0,0,0,1.549,7.048q2.51,5.178,5.98,7.208a2.979,2.979,0,0,0,1.121.427,8.373,8.373,0,0,0,.908.053h1.121A8.663,8.663,0,0,0,131.1,87.812Zm16.152-8.223a16.149,16.149,0,0,1,1.521-7.662,17.741,17.741,0,0,1,1.255-2.349,1.906,1.906,0,0,1,.961-0.988c0.071,0,.107.089,0.107,0.267a2.412,2.412,0,0,0,.24.828,6.079,6.079,0,0,0,.614,1.095,3.9,3.9,0,0,1,.855,1.6v0.641a7.268,7.268,0,0,1-.481,2.243,15.172,15.172,0,0,1-1.709,3.684,6.077,6.077,0,0,1-2.669,2.51l-0.427.107q-0.269,0-.267-1.976h0Zm4.271,2.723a15.432,15.432,0,0,0,3.577-7.155l0.428-1.976,1.228-.16a10.386,10.386,0,0,0,3.15-1.2,10.186,10.186,0,0,0,3.1-2.376q0.372-.481.667-0.881a5.82,5.82,0,0,1,.374-0.481,0.257,0.257,0,0,0,.08-0.187,0.622,0.622,0,0,0-.213-0.427A1.28,1.28,0,0,0,163,67.041a4.286,4.286,0,0,0-1.869,1.442,6.578,6.578,0,0,1-2.7,1.575,8.949,8.949,0,0,1-2.376.454,0.653,0.653,0,0,1-.481-0.16,1.361,1.361,0,0,1-.267-0.641,6.756,6.756,0,0,0-1.789-3.257,7.251,7.251,0,0,0-3.177-2.029,3.886,3.886,0,0,0-1.121-.16q-2.831.32-5.072,3.684a15.122,15.122,0,0,0-2.4,8.543,8.069,8.069,0,0,0,.107,1.5,9.578,9.578,0,0,0,2.616,4.432,6.955,6.955,0,0,0,2.136,1.709,3.287,3.287,0,0,0,1.121.214,5.393,5.393,0,0,0,3.791-2.029h0Zm26.43,1.5a61.766,61.766,0,0,0,4.592-5.873q2.189-3.043,3.844-5.767a29.16,29.16,0,0,0,1.922-3.577,2.027,2.027,0,0,0,.214-0.694,0.906,0.906,0,0,0-.374-0.374,2.42,2.42,0,0,0-.48-0.267H187.51a1.042,1.042,0,0,0-.64.347q-0.375.348-2.83,3.924-1.71,2.563-3.631,5.1a28.724,28.724,0,0,1-3.15,3.658,38.67,38.67,0,0,1,1.682-5.393q1.306-3.524,1.842-5.553l0.48-1.815-0.8-1.228q-1.441-2.243-2.99-2.349a2.074,2.074,0,0,0-1.6.8,22.493,22.493,0,0,0-2.776,5.339l-0.908,1.869-0.374.854a25.752,25.752,0,0,1-1.682,3.23,17.14,17.14,0,0,1-2.456,2.99Q166.1,80.6,165.458,80.6q-0.427,0-.427-0.747a25.065,25.065,0,0,1,1.6-5.339q0.534-1.6,1.015-2.99t1.174-4l-0.8-1.228q-1.441-2.243-2.99-2.349a2.071,2.071,0,0,0-1.6.8,22.72,22.72,0,0,0-2.884,5.606,21.849,21.849,0,0,0-1.815,7.422q0,2.082,2.883,4.912a4.582,4.582,0,0,0,3.044,1.548q3.255-.268,6.62-5.446a10.669,10.669,0,0,0,1.442,2.4,14.943,14.943,0,0,0,2.243,2.51,2.194,2.194,0,0,0,1.441.534,2.578,2.578,0,0,0,1.549-.427h0Zm10.518,0a3.5,3.5,0,0,0,.908-1.709,57.059,57.059,0,0,1,4.271-7.368q3.577-5.5,4.058-5.5c0.071,0,.107.089,0.107,0.267a7.611,7.611,0,0,1-.08.881,8.986,8.986,0,0,0-.08,1.148,3.889,3.889,0,0,0,.214,1.5A3.558,3.558,0,0,0,199.2,74.3q0.321,0.268.855,0.667a2.07,2.07,0,0,0,1.281.4,4.668,4.668,0,0,0,2.3-.748,13.638,13.638,0,0,0,2.109-1.922q1.308-1.388,2.4-2.75a5.56,5.56,0,0,0,1.095-1.629,1.177,1.177,0,0,0-.267-0.721,0.752,0.752,0,0,0-.588-0.347,5.777,5.777,0,0,0-.747.748q-0.695.748-1.655,1.655a32.645,32.645,0,0,1-2.83,2.483,3.97,3.97,0,0,1-1.656.934,0.142,0.142,0,0,1-.16-0.16l0.054-.427,0.32-1.175a33.774,33.774,0,0,1,1.041-3.39,2.889,2.889,0,0,0,.294-1.095,2.083,2.083,0,0,0-.427-1.068,1.411,1.411,0,0,1-.267-0.374q-1.016-1.442-1.6-1.442t-2.67,1.976a36.193,36.193,0,0,0-4.592,5.019,4.466,4.466,0,0,1-1.068,1.228,0.047,0.047,0,0,1-.053-0.053V72.06a14.743,14.743,0,0,0,.587-3.15,3.267,3.267,0,0,0-.534-1.6q-1.655-3.15-3.577-3.15a1.279,1.279,0,0,0-1.068.587,22.477,22.477,0,0,0-1.548,4q-1.014,3.151-1.923,6.835a24.442,24.442,0,0,0-.907,4.272,4.64,4.64,0,0,0,1.255,2.776,3.392,3.392,0,0,0,2.482,1.548,2.618,2.618,0,0,0,1.335-.374h0Zm29.046-4.592q1.388-1.708,3.311-4.645a40.471,40.471,0,0,0,3.257-5.553,0.859,0.859,0,0,0,.106-0.374,1.349,1.349,0,0,0-.373-0.667,1.022,1.022,0,0,0-.748-0.454,4.263,4.263,0,0,0-1.228,1.709,50.18,50.18,0,0,1-4.7,6.514,24.247,24.247,0,0,1-3.31,3.738l-0.427.427a3.9,3.9,0,0,0,.213-1.335,13.282,13.282,0,0,0-.4-3.177,12.687,12.687,0,0,1-.4-3.017,6.645,6.645,0,0,1,1.5-4.538l0.64-.748q-0.213,1.5-.213,1.762a0.839,0.839,0,0,0,.534.828,2.2,2.2,0,0,0,.8.24q0.693,0,.694-1.762a5.723,5.723,0,0,0-.321-2.056,4.308,4.308,0,0,0-1.121-1.575,4.72,4.72,0,0,0-3.043-1.335,3.871,3.871,0,0,0-2.35.961q-2.883,1.922-2.883,8.223l0.053,2.082,0.054,1.442a8.55,8.55,0,0,1-.481,3.284,1.759,1.759,0,0,1-1.762,1.095,1.148,1.148,0,0,1-.961-0.347,3,3,0,0,1-.4-0.667,0.44,0.44,0,0,0-.241-0.32,2.319,2.319,0,0,0-1.762,1.281q1.23,3.311,3.364,3.818a15.39,15.39,0,0,0,3.257.507q4.966,0,9.344-5.339h0Zm9.344-5.98a6.839,6.839,0,0,1,.481-1.6q0.641-1.6,1.094-2.483a5.289,5.289,0,0,1,1.122-1.5,1.862,1.862,0,0,1,1.094-.614,1.835,1.835,0,0,1,.321,1.335,4.415,4.415,0,0,1-.267,1.815,5.112,5.112,0,0,1-2.777,2.67l-1.068.427V73.235Zm2.456,10.252a13.442,13.442,0,0,0,3.311-2.67,41.257,41.257,0,0,0,5.5-7.262q2.4-4.057,2.51-4.912a1.219,1.219,0,0,0-.214-0.614A3.084,3.084,0,0,0,240,67.468a0.6,0.6,0,0,0-.32-0.214,0.142,0.142,0,0,0-.107.08q-0.054.08-.587,0.988T237.7,70.565a36.546,36.546,0,0,1-2.242,3.791q-0.375.534-.908,1.175a12.452,12.452,0,0,1-1.976,2.349A18.168,18.168,0,0,1,229,81.111a4.98,4.98,0,0,1-2.349.561,3.29,3.29,0,0,1-.641-0.053q-0.588-.32-0.587-1.815a16.591,16.591,0,0,1,.32-2.83l0.427-2.136h1.068a5.918,5.918,0,0,0,2.4-.641q2.562-1.388,2.856-2.857a12.46,12.46,0,0,0,.294-2.056,5.479,5.479,0,0,0-.961-3.1,4.966,4.966,0,0,0-4.165-2.029q-4.164.054-6.621,6.194a19.263,19.263,0,0,0-1.068,6.514,10.9,10.9,0,0,0,.347,2.937,5.64,5.64,0,0,0,1.335,2.3,5.74,5.74,0,0,0,2.189,1.522,6.966,6.966,0,0,0,2.483.454h0.321a7,7,0,0,0,2.669-.587h0Zm19.489-4.272q1.387-1.708,3.311-4.645a40.471,40.471,0,0,0,3.257-5.553,0.859,0.859,0,0,0,.106-0.374,1.349,1.349,0,0,0-.373-0.667,1.022,1.022,0,0,0-.748-0.454,4.263,4.263,0,0,0-1.228,1.709,50.18,50.18,0,0,1-4.7,6.514,24.247,24.247,0,0,1-3.31,3.738l-0.427.427a3.9,3.9,0,0,0,.213-1.335,13.282,13.282,0,0,0-.4-3.177,12.687,12.687,0,0,1-.4-3.017,6.65,6.65,0,0,1,1.5-4.538l0.641-.748q-0.213,1.5-.213,1.762a0.839,0.839,0,0,0,.534.828,2.2,2.2,0,0,0,.8.24q0.694,0,.695-1.762a5.723,5.723,0,0,0-.321-2.056,4.308,4.308,0,0,0-1.121-1.575,4.72,4.72,0,0,0-3.044-1.335,3.871,3.871,0,0,0-2.349.961q-2.883,1.922-2.883,8.223l0.053,2.082,0.054,1.442a8.569,8.569,0,0,1-.481,3.284,1.759,1.759,0,0,1-1.762,1.095,1.148,1.148,0,0,1-.961-0.347,3,3,0,0,1-.4-0.667,0.44,0.44,0,0,0-.241-0.32,2.319,2.319,0,0,0-1.762,1.281q1.23,3.311,3.364,3.818a15.39,15.39,0,0,0,3.257.507q4.966,0,9.344-5.339h0Z" transform="translate(-88.5 -25.063)"/>
</svg>
